<svg xmlns="http://www.w3.org/2000/svg" viewBox="0 0 337.62 307.53"><defs><style>.cls-1{fill:#4f80ff;}</style></defs><g id="Forms"><path class="cls-1" d="M195.85,237.8a6.89,6.89,0,0,0-12.3-4.27h0s-4.41,4.23-15.7,4.19c-12.28,0-15.63-4.3-15.63-4.3h0a6.89,6.89,0,1,0-10.59,8.82h0s7.5,9.34,26.22,9.34,25.84-8.77,25.84-8.77h0A6.89,6.89,0,0,0,195.85,237.8Z"/><path class="cls-1" d="M237.93,126A70.05,70.05,0,0,0,168,56h-.11A70,70,0,0,0,98,125.72c0,.09,0,.17,0,.26s0,.44,0,.66a69.74,69.74,0,0,0,6.18,28.1h0A70.3,70.3,0,0,0,112,168a69,69,0,0,0,5.42,6.41,34.62,34.62,0,0,1,3.66,6.59A93.76,93.76,0,0,1,128,201.06a9,9,0,0,0,.32,1.36,20.88,20.88,0,0,0,5.58,9.47C141.12,220,154.57,224,167.93,224h0c13.36,0,26.82-4,34.07-12.12a20.81,20.81,0,0,0,5.59-9.47,9,9,0,0,0,.32-1.36A93.21,93.21,0,0,1,214.82,181a34.08,34.08,0,0,1,3.66-6.59,69.84,69.84,0,0,0,19.26-43.54h0c.09-1.39.16-2.79.17-4.2C237.92,126.42,237.93,126.2,237.93,126Zm-30.39,40a29,29,0,0,0-6.22,8.8,27.42,27.42,0,0,0-1.12,2.87h0c-1.09,3-2,6-2.86,9-.27,1-.53,2-.78,3h0c-1.09,4-2.25,9.12-2.26,9.13h0a12.18,12.18,0,0,1-3.93,5.15l-.1.07c-4.26,3.65-13.45,5.71-22.43,5.71s-18-2.06-22.21-5.71l-.09-.07a12.12,12.12,0,0,1-3.94-5.15s-1.16-5.16-2.25-9.13h0c-.25-1-.5-2-.77-3-.83-3-1.77-6-2.86-9h0a30.59,30.59,0,0,0-1.12-2.87,28.42,28.42,0,0,0-4.77-7.26c-.47-.53-.95-1-1.46-1.54a56.5,56.5,0,0,1-8.67-11.07h0a55.8,55.8,0,0,1-7.15-19.1,57,57,0,0,1-.87-9.85,56.23,56.23,0,0,1,3.86-20.51,56.28,56.28,0,0,1,107.83,30.36c0,.21-.08.41-.12.61h0A55.74,55.74,0,0,1,218,151.83,56.42,56.42,0,0,1,207.54,166Z"/><path class="cls-1" d="M277.92,108.92c-1.91-10.85-15.27-17.4-39.71-19.49-3.49-.3-7.15-.49-11-.59a69.74,69.74,0,0,1,6.5,13.3c1.13.07,2.25.15,3.35.24,21.93,1.87,27.71,7.11,28,8.8s-3.35,8.59-23.31,17.85c-1.32.61-2.69,1.21-4.07,1.81-4.5,1.94-9.35,3.81-14.5,5.6a343.36,343.36,0,0,1-51.85,13.12,344.82,344.82,0,0,1-51.7,5.37c-5.43.12-10.62,0-15.52-.19-2-.1-4-.22-6-.39-21.93-1.87-27.72-7.11-28-8.8S73.53,137,93.5,127.7c1.45-.67,3-1.33,4.48-2A70.43,70.43,0,0,1,99.59,111q-6.12,2.37-11.56,4.89C65.78,126.23,55.47,137,57.38,147.81s15.27,17.41,39.71,19.5c4.69.39,9.69.61,14.92.66l2.39,0c4.95,0,10.11-.15,15.42-.45a372.94,372.94,0,0,0,43.83-5.18A372.69,372.69,0,0,0,218,151.83C224,150,229.65,148,235,146c4.34-1.66,8.45-3.38,12.27-5.16C269.52,130.51,279.84,119.77,277.92,108.92Z"/></g></svg>